<svg width="48" height="8" viewBox="0 0 48 8" fill="none" xmlns="http://www.w3.org/2000/svg">
<path d="M0.630502 7.23698C0.567859 7.23698 0.514612 7.21506 0.470762 7.17121C0.426911 7.12736 0.404986 7.07411 0.404986 7.01147V0.884941C0.404986 0.816033 0.426911 0.762787 0.470762 0.725201C0.514612 0.68135 0.567859 0.659425 0.630502 0.659425H1.51377C1.58268 0.659425 1.63593 0.68135 1.67352 0.725201C1.71737 0.762787 1.73929 0.816033 1.73929 0.884941V6.1094H4.71799C4.78689 6.1094 4.84327 6.13133 4.88712 6.17518C4.93097 6.21903 4.9529 6.27228 4.9529 6.33492V7.01147C4.9529 7.07411 4.93097 7.12736 4.88712 7.17121C4.84327 7.21506 4.78689 7.23698 4.71799 7.23698H0.630502ZM7.17099 7.33095C6.85151 7.33095 6.55708 7.26831 6.28772 7.14302C6.02461 7.01147 5.81476 6.83607 5.65815 6.61681C5.50781 6.39756 5.43263 6.15639 5.43263 5.89328C5.43263 5.46731 5.6049 5.12277 5.94944 4.85967C6.29398 4.59656 6.76694 4.41803 7.36832 4.32407L8.65564 4.13613V3.93881C8.65564 3.66944 8.58673 3.46585 8.44892 3.32803C8.3111 3.19022 8.09185 3.12131 7.79116 3.12131C7.58444 3.12131 7.41843 3.1589 7.29314 3.23407C7.16786 3.30924 7.0645 3.38755 6.98306 3.46898C6.90789 3.54415 6.85777 3.59427 6.83272 3.61933C6.80766 3.6945 6.76068 3.73208 6.69177 3.73208H5.95884C5.90246 3.73208 5.85235 3.71329 5.8085 3.67571C5.77091 3.63812 5.75212 3.588 5.75212 3.52536C5.75838 3.36875 5.83355 3.19335 5.97763 2.99916C6.12798 2.7987 6.35663 2.62643 6.66358 2.48235C6.97053 2.332 7.34952 2.25683 7.80056 2.25683C8.53975 2.25683 9.07848 2.42284 9.41676 2.75485C9.75503 3.08686 9.92417 3.52223 9.92417 4.06096V7.01147C9.92417 7.07411 9.90224 7.12736 9.85839 7.17121C9.82081 7.21506 9.76756 7.23698 9.69865 7.23698H8.91874C8.8561 7.23698 8.80285 7.21506 8.759 7.17121C8.71515 7.12736 8.69322 7.07411 8.69322 7.01147V6.645C8.55541 6.84546 8.36121 7.01147 8.11064 7.14302C7.86007 7.26831 7.54685 7.33095 7.17099 7.33095ZM7.49047 6.42888C7.83501 6.42888 8.11691 6.31613 8.33616 6.09061C8.55541 5.86509 8.66504 5.53935 8.66504 5.11337V4.92544L7.72538 5.07579C7.00498 5.18854 6.64478 5.42972 6.64478 5.79932C6.64478 5.99978 6.72622 6.15639 6.88909 6.26914C7.05823 6.37564 7.25869 6.42888 7.49047 6.42888ZM12.9899 7.33095C12.5138 7.33095 12.1161 7.25891 11.7966 7.11483C11.4771 6.97075 11.239 6.80474 11.0824 6.61681C10.9321 6.42262 10.8569 6.25661 10.8569 6.1188C10.8569 6.05616 10.8757 6.00604 10.9133 5.96845C10.9571 5.93087 11.0073 5.91208 11.0636 5.91208H11.8342C11.8843 5.91208 11.9281 5.93713 11.9657 5.98725C11.997 6.01231 12.0659 6.07182 12.1724 6.16578C12.2852 6.25975 12.4105 6.33492 12.5483 6.3913C12.6924 6.44141 12.849 6.46647 13.0181 6.46647C13.2687 6.46647 13.4723 6.41949 13.6289 6.32552C13.7855 6.22529 13.8638 6.08435 13.8638 5.90268C13.8638 5.77739 13.8262 5.67716 13.751 5.60199C13.6821 5.52055 13.5537 5.44851 13.3658 5.38587C13.1841 5.31696 12.9085 5.24179 12.5389 5.16035C12.0064 5.0476 11.6118 4.87533 11.3549 4.64355C11.1044 4.41177 10.9791 4.10481 10.9791 3.72269C10.9791 3.47211 11.0542 3.2372 11.2046 3.01795C11.3549 2.79243 11.5773 2.61077 11.8717 2.47295C12.1724 2.32887 12.5295 2.25683 12.9429 2.25683C13.3689 2.25683 13.7354 2.32574 14.0423 2.46356C14.3493 2.59511 14.5811 2.75485 14.7377 2.94278C14.9006 3.13071 14.982 3.29671 14.982 3.44079C14.982 3.49717 14.9601 3.54729 14.9162 3.59114C14.8786 3.62872 14.8316 3.64752 14.7753 3.64752H14.0705C14.0016 3.64752 13.9484 3.62246 13.9108 3.57234C13.8669 3.54102 13.7949 3.48464 13.6947 3.40321C13.6007 3.31551 13.4942 3.2466 13.3752 3.19648C13.2562 3.14637 13.1121 3.12131 12.9429 3.12131C12.7112 3.12131 12.5326 3.17143 12.4073 3.27166C12.2821 3.37189 12.2194 3.50344 12.2194 3.66631C12.2194 3.77907 12.2476 3.87303 12.304 3.9482C12.3666 4.02338 12.4888 4.09542 12.6704 4.16432C12.8521 4.22697 13.1246 4.29274 13.4879 4.36165C14.6155 4.5809 15.1793 5.07265 15.1793 5.8369C15.1793 6.28167 14.9851 6.64187 14.5967 6.9175C14.2146 7.19313 13.679 7.33095 12.9899 7.33095ZM16.3746 7.23698C16.3119 7.23698 16.2587 7.21506 16.2148 7.17121C16.171 7.12736 16.1491 7.07411 16.1491 7.01147V0.790976C16.1491 0.722068 16.171 0.668821 16.2148 0.631236C16.2587 0.587385 16.3119 0.56546 16.3746 0.56546H17.1639C17.2328 0.56546 17.286 0.587385 17.3236 0.631236C17.3675 0.668821 17.3894 0.722068 17.3894 0.790976V7.01147C17.3894 7.07411 17.3675 7.12736 17.3236 7.17121C17.286 7.21506 17.2328 7.23698 17.1639 7.23698H16.3746ZM20.7498 7.33095C20.0482 7.33095 19.4907 7.13049 19.0773 6.72957C18.6701 6.32865 18.4539 5.7586 18.4289 5.01941L18.4195 4.78449C18.4195 4.00145 18.6231 3.38441 19.0303 2.93338C19.4437 2.48235 20.0138 2.25683 20.7404 2.25683C21.4859 2.25683 22.0591 2.48235 22.46 2.93338C22.8672 3.38441 23.0708 3.98579 23.0708 4.73751V4.93484C23.0708 4.99748 23.0488 5.05073 23.005 5.09458C22.9611 5.13843 22.9048 5.16035 22.8359 5.16035H19.7162V5.23553C19.7287 5.58633 19.8227 5.87762 19.9981 6.1094C20.1798 6.33492 20.4272 6.44768 20.7404 6.44768C21.0975 6.44768 21.3888 6.3036 21.6143 6.01544C21.6707 5.94653 21.7145 5.90581 21.7459 5.89328C21.7772 5.87449 21.8304 5.86509 21.9056 5.86509H22.7325C22.7889 5.86509 22.8359 5.88075 22.8734 5.91208C22.9173 5.9434 22.9392 5.98725 22.9392 6.04363C22.9392 6.19397 22.8484 6.37251 22.6667 6.57923C22.4913 6.77969 22.2376 6.95509 21.9056 7.10543C21.5736 7.25578 21.1883 7.33095 20.7498 7.33095ZM21.7741 4.36165V4.34286C21.7741 3.97326 21.6801 3.67884 21.4922 3.45959C21.3105 3.23407 21.0599 3.12131 20.7404 3.12131C20.421 3.12131 20.1704 3.23407 19.9887 3.45959C19.807 3.67884 19.7162 3.97326 19.7162 4.34286V4.36165H21.7741ZM25.9285 7.33095C25.4524 7.33095 25.0546 7.25891 24.7351 7.11483C24.4156 6.97075 24.1776 6.80474 24.021 6.61681C23.8706 6.42262 23.7955 6.25661 23.7955 6.1188C23.7955 6.05616 23.8143 6.00604 23.8519 5.96845C23.8957 5.93087 23.9458 5.91208 24.0022 5.91208H24.7727C24.8228 5.91208 24.8667 5.93713 24.9043 5.98725C24.9356 6.01231 25.0045 6.07182 25.111 6.16578C25.2237 6.25975 25.349 6.33492 25.4868 6.3913C25.6309 6.44141 25.7875 6.46647 25.9567 6.46647C26.2072 6.46647 26.4108 6.41949 26.5674 6.32552C26.7241 6.22529 26.8024 6.08435 26.8024 5.90268C26.8024 5.77739 26.7648 5.67716 26.6896 5.60199C26.6207 5.52055 26.4923 5.44851 26.3043 5.38587C26.1227 5.31696 25.847 5.24179 25.4775 5.16035C24.945 5.0476 24.5503 4.87533 24.2935 4.64355C24.0429 4.41177 23.9176 4.10481 23.9176 3.72269C23.9176 3.47211 23.9928 3.2372 24.1431 3.01795C24.2935 2.79243 24.5159 2.61077 24.8103 2.47295C25.111 2.32887 25.4681 2.25683 25.8815 2.25683C26.3075 2.25683 26.6739 2.32574 26.9809 2.46356C27.2878 2.59511 27.5196 2.75485 27.6762 2.94278C27.8391 3.13071 27.9205 3.29671 27.9205 3.44079C27.9205 3.49717 27.8986 3.54729 27.8548 3.59114C27.8172 3.62872 27.7702 3.64752 27.7138 3.64752H27.0091C26.9402 3.64752 26.8869 3.62246 26.8493 3.57234C26.8055 3.54102 26.7335 3.48464 26.6332 3.40321C26.5393 3.31551 26.4328 3.2466 26.3137 3.19648C26.1947 3.14637 26.0506 3.12131 25.8815 3.12131C25.6497 3.12131 25.4712 3.17143 25.3459 3.27166C25.2206 3.37189 25.158 3.50344 25.158 3.66631C25.158 3.77907 25.1862 3.87303 25.2425 3.9482C25.3052 4.02338 25.4273 4.09542 25.609 4.16432C25.7907 4.22697 26.0632 4.29274 26.4265 4.36165C27.5541 4.5809 28.1179 5.07265 28.1179 5.8369C28.1179 6.28167 27.9237 6.64187 27.5353 6.9175C27.1532 7.19313 26.6176 7.33095 25.9285 7.33095ZM30.9763 7.23698C30.8698 7.23698 30.7821 7.21193 30.7132 7.16181C30.6506 7.10543 30.6067 7.03653 30.5817 6.95509L28.6836 0.94132L28.6648 0.856752C28.6648 0.806637 28.6836 0.762787 28.7212 0.725201C28.765 0.68135 28.8151 0.659425 28.8715 0.659425H30.1024C30.1964 0.659425 30.2716 0.687614 30.328 0.743993C30.3906 0.794108 30.4313 0.850487 30.4501 0.913131L31.728 5.16035L33.0154 0.913131C33.0342 0.844223 33.0717 0.784712 33.1281 0.734597C33.1908 0.684482 33.2691 0.659425 33.363 0.659425H34.594C34.6504 0.659425 34.6973 0.68135 34.7349 0.725201C34.7725 0.762787 34.7913 0.806637 34.7913 0.856752C34.7913 0.888073 34.7882 0.916263 34.7819 0.94132L32.8744 6.95509C32.8556 7.03653 32.8118 7.10543 32.7429 7.16181C32.6802 7.21193 32.5957 7.23698 32.4892 7.23698H30.9763ZM35.8838 7.23698C35.8212 7.23698 35.7648 7.21506 35.7147 7.17121C35.6708 7.12109 35.6489 7.06471 35.6489 7.00207V0.903734C35.6489 0.834826 35.6708 0.778447 35.7147 0.734597C35.7585 0.684482 35.8149 0.659425 35.8838 0.659425H38.543C39.3574 0.659425 39.9963 0.844223 40.4599 1.21382C40.9235 1.58342 41.1552 2.12528 41.1552 2.83942C41.1552 3.55355 40.9235 4.08915 40.4599 4.44622C39.9963 4.79702 39.3574 4.97242 38.543 4.97242H37.4718V7.00207C37.4718 7.06471 37.4499 7.12109 37.406 7.17121C37.3622 7.21506 37.3058 7.23698 37.2369 7.23698H35.8838ZM38.496 3.62872C38.7529 3.62872 38.9533 3.56295 39.0974 3.4314C39.2477 3.29358 39.3229 3.09312 39.3229 2.83002C39.3229 2.58571 39.254 2.38838 39.1162 2.23804C38.9846 2.08769 38.7779 2.01252 38.496 2.01252H37.4436V3.62872H38.496ZM42.2613 7.23698C42.1987 7.23698 42.1423 7.21506 42.0922 7.17121C42.0483 7.12109 42.0264 7.06471 42.0264 7.00207V0.903734C42.0264 0.834826 42.0483 0.778447 42.0922 0.734597C42.136 0.684482 42.1924 0.659425 42.2613 0.659425H43.3231C43.4672 0.659425 43.5737 0.718936 43.6426 0.837958L45.8602 4.34286V0.903734C45.8602 0.834826 45.8821 0.778447 45.926 0.734597C45.9698 0.684482 46.0262 0.659425 46.0951 0.659425H47.2884C47.3574 0.659425 47.4137 0.684482 47.4576 0.734597C47.5014 0.778447 47.5234 0.834826 47.5234 0.903734V6.99267C47.5234 7.06158 47.5014 7.12109 47.4576 7.17121C47.4137 7.21506 47.3574 7.23698 47.2884 7.23698H46.2266C46.0826 7.23698 45.9761 7.17747 45.9072 7.05845L43.699 3.6945V7.00207C43.699 7.07098 43.6739 7.12736 43.6238 7.17121C43.58 7.21506 43.5236 7.23698 43.4547 7.23698H42.2613Z" fill="#0B132A"/>
</svg>
